<?xml version="1.0" encoding="UTF-8"?>
<svg id="Layer_1" data-name="Layer 1" xmlns="http://www.w3.org/2000/svg" xmlns:xlink="http://www.w3.org/1999/xlink" viewBox="0 0 32 32">
  <defs>
    <style>
      .cls-1 {
        fill: url(#linear-gradient-2);
      }

      .cls-2 {
        fill: none;
        stroke: #000;
        stroke-miterlimit: 10;
        stroke-width: .03px;
      }

      .cls-3 {
        fill: url(#linear-gradient);
      }
    </style>
    <linearGradient id="linear-gradient" x1="1.22" y1="16" x2="30.78" y2="16" gradientUnits="userSpaceOnUse">
      <stop offset="0" stop-color="#ebf2fa"/>
      <stop offset=".5" stop-color="#427aa1"/>
      <stop offset="1" stop-color="#064789"/>
    </linearGradient>
    <linearGradient id="linear-gradient-2" x1="16" y1="45.04" x2="16" y2="-13.05" gradientUnits="userSpaceOnUse">
      <stop offset="0" stop-color="#ebf2fa"/>
      <stop offset="0" stop-color="#e0eaf4"/>
      <stop offset=".5" stop-color="#427aa1"/>
      <stop offset="1" stop-color="#064789"/>
    </linearGradient>
  </defs>
  <path class="cls-3" d="M29.59,27.25c-1.82-4.85-7.65-20.41-9.72-25.93-.07-.19-.26-.32-.47-.32h-6.43c-.35,0-.59.35-.47.68l6.52,17.4c.12.33-.12.68-.47.68h-6.43c-.21,0-.39-.13-.47-.32l-2.69-7.18c-.16-.43-.77-.43-.94,0-2.04,5.44-4.8,12.8-6.78,18.08-.12.33.12.67.47.67h6.43c.21,0,.39-.13.47-.32l1.16-3.1c.07-.2.26-.32.47-.32h11.49c.21,0,.39.13.47.32l1.16,3.1c.07.2.26.32.47.32h6.43c.35,0,.59-.35.47-.68l-1.15-3.07Z"/>
  <path class="cls-2" d="M29.59,27.25c-1.82-4.85-7.65-20.41-9.72-25.93-.07-.19-.26-.32-.47-.32h-6.43c-.35,0-.59.35-.47.68l6.52,17.4c.12.33-.12.68-.47.68h-6.43c-.21,0-.39-.13-.47-.32l-2.69-7.18c-.16-.43-.77-.43-.94,0-2.04,5.44-4.8,12.8-6.78,18.08-.12.33.12.67.47.67h6.43c.21,0,.39-.13.47-.32l1.16-3.1c.07-.2.26-.32.47-.32h11.49c.21,0,.39.13.47.32l1.16,3.1c.07.2.26.32.47.32h6.43c.35,0,.59-.35.47-.68l-1.15-3.07Z"/>
  <path class="cls-1" d="M29.59,27.25c-1.82-4.85-7.65-20.41-9.72-25.93-.07-.19-.26-.32-.47-.32h-6.43c-.35,0-.59.35-.47.68l6.52,17.4c.12.33-.12.68-.47.68h-6.43c-.21,0-.39-.13-.47-.32l-2.69-7.18c-.16-.43-.77-.43-.94,0-2.04,5.44-4.8,12.8-6.78,18.08-.12.33.12.67.47.67h6.43c.21,0,.39-.13.47-.32l1.16-3.1c.07-.2.26-.32.47-.32h11.49c.21,0,.39.13.47.32l1.16,3.1c.07.2.26.32.47.32h6.43c.35,0,.59-.35.47-.68l-1.15-3.07Z"/>
</svg>