<?xml version="1.0" encoding="UTF-8"?>
<svg id="Layer_1" data-name="Layer 1" xmlns="http://www.w3.org/2000/svg" xmlns:xlink="http://www.w3.org/1999/xlink" viewBox="0 0 600 600">
  <defs>
    <style>
      .cls-1 {
        fill: none;
        stroke: #000;
        stroke-miterlimit: 10;
        stroke-width: .46px;
      }

      .cls-2 {
        fill: url(#linear-gradient-2);
      }

      .cls-3 {
        fill: url(#linear-gradient);
      }
    </style>
    <linearGradient id="linear-gradient" x1="102.95" y1="300" x2="497.05" y2="300" gradientUnits="userSpaceOnUse">
      <stop offset="0" stop-color="#ebf2fa"/>
      <stop offset=".5" stop-color="#427aa1"/>
      <stop offset="1" stop-color="#064789"/>
    </linearGradient>
    <linearGradient id="linear-gradient-2" x1="300" y1="687.15" x2="300" y2="-87.31" gradientUnits="userSpaceOnUse">
      <stop offset="0" stop-color="#ebf2fa"/>
      <stop offset="0" stop-color="#e0eaf4"/>
      <stop offset=".5" stop-color="#427aa1"/>
      <stop offset="1" stop-color="#064789"/>
    </linearGradient>
  </defs>
  <path class="cls-3" d="M481.25,450c-24.25-64.66-102.06-272.17-129.63-345.69-.97-2.6-3.46-4.31-6.23-4.31h-85.77c-4.65,0-7.88,4.65-6.24,9.01l86.99,231.98c1.63,4.36-1.59,9.01-6.24,9.01h-85.76c-2.78,0-5.27-1.72-6.24-4.33l-35.89-95.7c-2.16-5.77-10.32-5.77-12.48,0-27.22,72.59-64.02,170.72-90.39,241.03-1.63,4.36,1.59,9,6.24,9h85.77c2.78,0,5.27-1.72,6.24-4.33l15.51-41.35c.98-2.6,3.46-4.33,6.24-4.33h153.26c2.78,0,5.27,1.72,6.24,4.33l15.51,41.35c.98,2.6,3.46,4.33,6.24,4.33h85.76c4.65,0,7.88-4.65,6.24-9.01l-15.37-40.99Z"/>
  <path class="cls-1" d="M481.25,450c-24.25-64.66-102.06-272.17-129.63-345.69-.97-2.6-3.46-4.31-6.23-4.31h-85.77c-4.65,0-7.88,4.65-6.24,9.01l86.99,231.98c1.63,4.36-1.59,9.01-6.24,9.01h-85.76c-2.78,0-5.27-1.72-6.24-4.33l-35.89-95.7c-2.16-5.77-10.32-5.77-12.48,0-27.22,72.59-64.02,170.72-90.39,241.03-1.63,4.36,1.59,9,6.24,9h85.77c2.78,0,5.27-1.72,6.24-4.33l15.51-41.35c.98-2.6,3.46-4.33,6.24-4.33h153.26c2.78,0,5.27,1.72,6.24,4.33l15.51,41.35c.98,2.6,3.46,4.33,6.24,4.33h85.76c4.65,0,7.88-4.65,6.24-9.01l-15.37-40.99Z"/>
  <path class="cls-2" d="M481.25,450c-24.25-64.66-102.06-272.17-129.63-345.69-.97-2.6-3.46-4.31-6.23-4.31h-85.77c-4.65,0-7.88,4.65-6.24,9.01l86.99,231.98c1.63,4.36-1.59,9.01-6.24,9.01h-85.76c-2.78,0-5.27-1.72-6.24-4.33l-35.89-95.7c-2.16-5.77-10.32-5.77-12.48,0-27.22,72.59-64.02,170.72-90.39,241.03-1.63,4.36,1.59,9,6.24,9h85.77c2.78,0,5.27-1.72,6.24-4.33l15.51-41.35c.98-2.6,3.46-4.33,6.24-4.33h153.26c2.78,0,5.27,1.72,6.24,4.33l15.51,41.35c.98,2.6,3.46,4.33,6.24,4.33h85.76c4.65,0,7.88-4.65,6.24-9.01l-15.37-40.99Z"/>
</svg>